<svg width="360" height="98" viewBox="0 0 360 98" fill="none" xmlns="http://www.w3.org/2000/svg">
<g clip-path="url(#clip0_117_146)">
<path d="M360.22 -2V96.4456C360.22 97.4286 358.094 98.2382 355.512 98.2382H123.838C121.256 98.2382 119.13 97.4286 119.13 96.4456V-2H360.22Z" fill="#004691"/>
<path d="M50 19.8018H63.3277C70.3247 19.8018 73.8565 20.668 76.2555 21.8008C82.1197 24.5994 85.6515 30.3298 85.6515 36.7932C85.6515 44.3894 80.1872 52.1189 70.0581 52.7852L84.9185 72.3754H78.3213L60.5289 48.5873C67.1927 48.5873 69.4584 48.5207 71.7907 47.7877C77.5216 46.1885 80.4537 41.3243 80.4537 36.66C80.4537 32.5287 78.1214 28.2642 74.7228 26.5984C71.5908 24.9992 68.9253 24.5994 64.5272 24.5994H55.2644V72.3754H50V19.8018Z" fill="#004691"/>
<path d="M160.353 47.188H166.817C172.415 47.188 174.547 47.3879 177.013 48.3874C180.478 49.7201 183.21 53.2517 183.21 57.2497C183.21 61.2477 180.944 64.8458 177.679 66.1785C174.814 67.3113 172.148 67.5112 167.75 67.5112H160.353V47.188ZM155.089 72.3088H168.283C174.48 72.3754 177.946 72.0422 182.41 69.3769C186.075 66.9115 188.408 62.4471 188.408 57.3829C188.408 51.3193 184.943 46.4551 179.678 44.3228C181.544 42.8569 185.409 39.925 185.409 33.7281C185.409 31.5958 184.743 19.7351 168.216 19.7351H155.022V72.3088H155.089ZM160.353 24.5327H167.35C172.748 24.5327 175.946 25.4656 178.012 27.7977C179.345 29.4636 180.211 31.1294 180.211 33.5282C180.211 36.66 178.412 39.6585 175.946 40.9245C173.414 42.1905 171.015 42.3904 166.95 42.3904H160.353V24.5327Z" fill="white"/>
<path d="M201.202 19.8018V52.5187C201.202 56.3834 201.802 59.8484 203.002 62.0473C206.2 67.911 211.398 68.5107 213.864 68.5107C216.329 68.5107 221.527 67.911 224.726 62.0473C225.925 59.8484 226.525 56.3834 226.525 52.5187V19.8018H231.789V52.5187C231.789 56.9165 231.056 60.7146 229.79 63.4466C226.192 71.3093 218.795 73.2416 213.864 73.2416C208.932 73.2416 201.602 71.3093 197.937 63.4466C196.671 60.648 195.938 56.9165 195.938 52.5187V19.8018H201.202Z" fill="white"/>
<path d="M243.918 57.6495C244.184 64.2462 248.383 68.5107 254.846 68.5107C260.377 68.5107 265.442 64.2462 265.442 58.0493C265.442 49.92 257.245 47.921 253.714 46.8549C248.982 45.4556 240.053 43.4566 240.053 32.9952C240.053 24.7993 246.517 18.8689 254.846 18.8689C263.443 18.8689 269.44 25.4656 269.44 33.1284H264.176C264.176 27.7978 259.844 23.5999 254.846 23.5999C248.782 23.5999 245.317 28.1976 245.317 32.7286C245.317 39.1254 250.915 40.5914 257.845 42.5903C270.773 46.0553 270.706 56.2502 270.706 57.7827C270.706 65.912 264.176 73.175 254.846 73.175C248.049 73.175 238.853 69.1104 238.653 57.5828H243.918V57.6495Z" fill="white"/>
<path d="M284.967 24.5327H272.905V19.8018H302.226V24.5327H290.231V72.3088H284.967V24.5327Z" fill="white"/>
<path d="M146.626 45.9885C146.626 61.2475 134.231 73.5747 119.037 73.5747C103.777 73.5747 91.4492 61.1809 91.4492 45.9885C91.4492 30.7295 103.844 18.4023 119.037 18.4023C134.231 18.4023 146.626 30.7295 146.626 45.9885Z" fill="#004691"/>
<mask id="mask0_117_146" style="mask-type:luminance" maskUnits="userSpaceOnUse" x="96" y="23" width="46" height="47">
<path d="M96.0469 46.2551C96.0469 58.9154 106.309 69.177 118.97 69.177C131.632 69.177 141.894 58.9154 141.894 46.2551C141.894 33.5948 131.632 23.3333 118.97 23.3333C106.309 23.3333 96.0469 33.5948 96.0469 46.2551Z" fill="white"/>
</mask>
<g mask="url(#mask0_117_146)">
<path d="M141.894 23.3333H96.0469V69.177H141.894V23.3333Z" fill="url(#paint0_radial_117_146)"/>
</g>
<path d="M300.627 68.9769C300.627 70.243 299.627 71.3091 298.361 71.3091C297.095 71.3091 296.095 70.243 296.095 68.9769C296.095 67.7109 297.095 66.6448 298.361 66.6448C299.627 66.6448 300.627 67.7109 300.627 68.9769ZM296.428 68.9769C296.428 70.1097 297.228 70.9759 298.361 70.9759C299.427 70.9759 300.227 70.1097 300.227 68.9769C300.227 67.8442 299.427 66.9779 298.361 66.9779C297.295 66.9779 296.428 67.8442 296.428 68.9769ZM299.294 68.1107C299.227 68.0441 298.894 67.9108 298.561 67.9108C297.828 67.9108 297.495 68.3772 297.495 68.9769C297.495 69.5766 297.828 70.0431 298.561 70.0431C298.827 70.0431 299.161 69.9764 299.294 69.8432L299.361 70.1097C299.094 70.3096 298.761 70.3096 298.428 70.3096C297.561 70.3096 297.028 69.7099 297.028 68.9769C297.028 68.1107 297.695 67.5776 298.494 67.5776C298.894 67.5776 299.227 67.7109 299.294 67.7775V68.1107Z" fill="white"/>
</g>
<defs>
<radialGradient id="paint0_radial_117_146" cx="0" cy="0" r="1" gradientUnits="userSpaceOnUse" gradientTransform="translate(112.558 35.6023) scale(44.1659 44.1626)">
<stop stop-color="white"/>
<stop offset="1.3e-07" stop-color="white"/>
<stop offset="0.1214" stop-color="#FEDFBA"/>
<stop offset="0.2492" stop-color="#FABF73"/>
<stop offset="0.3406" stop-color="#F8AA42"/>
<stop offset="0.3859" stop-color="#F6A22D"/>
<stop offset="0.4519" stop-color="#F3A032"/>
<stop offset="0.5171" stop-color="#EA9B3D"/>
<stop offset="0.582" stop-color="#DA934D"/>
<stop offset="0.6468" stop-color="#C4895F"/>
<stop offset="0.7115" stop-color="#A67B70"/>
<stop offset="0.7761" stop-color="#816B7E"/>
<stop offset="0.8402" stop-color="#51598A"/>
<stop offset="0.9033" stop-color="#004791"/>
<stop offset="0.9043" stop-color="#004691"/>
<stop offset="1" stop-color="#004691"/>
</radialGradient>
<clipPath id="clip0_117_146">
<rect width="360" height="98" fill="white"/>
</clipPath>
</defs>
</svg>
