<svg width="462" height="145" viewBox="0 0 462 145" fill="none" xmlns="http://www.w3.org/2000/svg">
<path d="M462 0V142.407C462 143.829 459.204 145 455.81 145H151.19C147.796 145 145 143.829 145 142.407V0H462Z" fill="#004691"/>
<path d="M41.5 34.1001H61.5C72 34.1001 77.3 35.4001 80.9 37.1001C89.7 41.3001 95 49.9001 95 59.6001C95 71.0001 86.8 82.6001 71.6 83.6001L93.9 113H84L57.3 77.3001C67.3 77.3001 70.7 77.2001 74.2 76.1001C82.8 73.7001 87.2 66.4001 87.2 59.4001C87.2 53.2001 83.7 46.8001 78.6 44.3001C73.9 41.9001 69.9 41.3001 63.3 41.3001H49.4V113H41.5V34.1001Z" fill="#004691"/>
<path d="M207.1 75.2H216.8C225.2 75.2 228.4 75.5 232.1 77C237.3 79 241.4 84.3 241.4 90.3C241.4 96.3 238 101.7 233.1 103.7C228.8 105.4 224.8 105.7 218.2 105.7H207.1V75.2ZM199.2 112.9H219C228.3 113 233.5 112.5 240.2 108.5C245.7 104.8 249.2 98.1 249.2 90.5C249.2 81.4 244 74.1 236.1 70.9C238.9 68.7 244.7 64.3 244.7 55C244.7 51.8 243.7 34 218.9 34H199.1V112.9H199.2ZM207.1 41.2H217.6C225.7 41.2 230.5 42.6 233.6 46.1C235.6 48.6 236.9 51.1 236.9 54.7C236.9 59.4 234.2 63.9 230.5 65.8C226.7 67.7 223.1 68 217 68H207.1V41.2Z" fill="white"/>
<path d="M268.4 34.1001V83.2001C268.4 89.0001 269.3 94.2001 271.1 97.5001C275.9 106.3 283.7 107.2 287.4 107.2C291.1 107.2 298.9 106.3 303.7 97.5001C305.5 94.2001 306.4 89.0001 306.4 83.2001V34.1001H314.3V83.2001C314.3 89.8001 313.2 95.5001 311.3 99.6001C305.9 111.4 294.8 114.3 287.4 114.3C280 114.3 269 111.4 263.5 99.6001C261.6 95.4001 260.5 89.8001 260.5 83.2001V34.1001H268.4Z" fill="white"/>
<path d="M332.5 90.8999C332.9 100.8 339.2 107.2 348.9 107.2C357.2 107.2 364.8 100.8 364.8 91.5C364.8 79.3 352.5 76.2999 347.2 74.7C340.1 72.6 326.7 69.5999 326.7 53.8999C326.7 41.5999 336.4 32.7 348.9 32.7C361.8 32.7 370.8 42.6 370.8 54.1H362.9C362.9 46.1 356.4 39.8 348.9 39.8C339.8 39.8 334.6 46.7 334.6 53.5C334.6 63.1 343 65.3 353.4 68.3C372.8 73.5 372.7 88.8 372.7 91.1C372.7 103.3 362.9 114.2 348.9 114.2C338.7 114.2 324.9 108.1 324.6 90.8H332.5V90.8999Z" fill="white"/>
<path d="M394.1 41.2001H376V34.1001H420V41.2001H402V112.9H394.1V41.2001Z" fill="white"/>
<path d="M186.5 73.4C186.5 96.3 167.9 114.8 145.1 114.8C122.2 114.8 103.7 96.2 103.7 73.4C103.7 50.5 122.3 32 145.1 32C167.9 32 186.5 50.5 186.5 73.4Z" fill="#004691"/>
<mask id="mask0_140_147" style="mask-type:luminance" maskUnits="userSpaceOnUse" x="110" y="39" width="70" height="70">
<path d="M110.6 73.7999C110.6 92.7999 126 108.2 145 108.2C164 108.2 179.4 92.7999 179.4 73.7999C179.4 54.7999 164 39.3999 145 39.3999C126 39.3999 110.6 54.7999 110.6 73.7999Z" fill="white"/>
</mask>
<g mask="url(#mask0_140_147)">
<path d="M179.4 39.3999H110.6V108.2H179.4V39.3999Z" fill="url(#paint0_radial_140_147)"/>
</g>
<path d="M417.6 107.9C417.6 109.8 416.1 111.4 414.2 111.4C412.3 111.4 410.8 109.8 410.8 107.9C410.8 106 412.3 104.4 414.2 104.4C416.1 104.4 417.6 106 417.6 107.9ZM411.3 107.9C411.3 109.6 412.5 110.9 414.2 110.9C415.8 110.9 417 109.6 417 107.9C417 106.2 415.8 104.9 414.2 104.9C412.6 104.9 411.3 106.2 411.3 107.9ZM415.6 106.6C415.5 106.5 415 106.3 414.5 106.3C413.4 106.3 412.9 107 412.9 107.9C412.9 108.8 413.4 109.5 414.5 109.5C414.9 109.5 415.4 109.4 415.6 109.2L415.7 109.6C415.3 109.9 414.8 109.9 414.3 109.9C413 109.9 412.2 109 412.2 107.9C412.2 106.6 413.2 105.8 414.4 105.8C415 105.8 415.5 106 415.6 106.1V106.6Z" fill="white"/>
<defs>
<radialGradient id="paint0_radial_140_147" cx="0" cy="0" r="1" gradientUnits="userSpaceOnUse" gradientTransform="translate(135.378 57.8127) scale(66.277 66.277)">
<stop stop-color="white"/>
<stop offset="1.3e-07" stop-color="white"/>
<stop offset="0.1214" stop-color="#FEDFBA"/>
<stop offset="0.2492" stop-color="#FABF73"/>
<stop offset="0.3406" stop-color="#F8AA42"/>
<stop offset="0.3859" stop-color="#F6A22D"/>
<stop offset="0.4519" stop-color="#F3A032"/>
<stop offset="0.5171" stop-color="#EA9B3D"/>
<stop offset="0.582" stop-color="#DA934D"/>
<stop offset="0.6468" stop-color="#C4895F"/>
<stop offset="0.7115" stop-color="#A67B70"/>
<stop offset="0.7761" stop-color="#816B7E"/>
<stop offset="0.8402" stop-color="#51598A"/>
<stop offset="0.9033" stop-color="#004791"/>
<stop offset="0.9043" stop-color="#004691"/>
<stop offset="1" stop-color="#004691"/>
</radialGradient>
</defs>
</svg>
