<svg width="425" height="145" viewBox="0 0 425 145" fill="none" xmlns="http://www.w3.org/2000/svg">
<path d="M425 0V142.407C425 143.829 422.204 145 418.81 145H114.19C110.796 145 108 143.829 108 142.407V0H425Z" fill="#004691"/>
<path d="M4.5 34.1001H24.5C35 34.1001 40.3 35.4001 43.9 37.1001C52.7 41.3001 58 49.9001 58 59.6001C58 71.0001 49.8 82.6001 34.6 83.6001L56.9 113H47L20.3 77.3001C30.3 77.3001 33.7 77.2001 37.2 76.1001C45.8 73.7001 50.2 66.4001 50.2 59.4001C50.2 53.2001 46.7 46.8001 41.6 44.3001C36.9 41.9001 32.9 41.3001 26.3 41.3001H12.4V113H4.5V34.1001Z" fill="#004691"/>
<path d="M170.1 75.2H179.8C188.2 75.2 191.4 75.5 195.1 77C200.3 79 204.4 84.3 204.4 90.3C204.4 96.3 201 101.7 196.1 103.7C191.8 105.4 187.8 105.7 181.2 105.7H170.1V75.2ZM162.2 112.9H182C191.3 113 196.5 112.5 203.2 108.5C208.7 104.8 212.2 98.1 212.2 90.5C212.2 81.4 207 74.1 199.1 70.9C201.9 68.7 207.7 64.3 207.7 55C207.7 51.8 206.7 34 181.9 34H162.1V112.9H162.2ZM170.1 41.2H180.6C188.7 41.2 193.5 42.6 196.6 46.1C198.6 48.6 199.9 51.1 199.9 54.7C199.9 59.4 197.2 63.9 193.5 65.8C189.7 67.7 186.1 68 180 68H170.1V41.2Z" fill="white"/>
<path d="M231.4 34.1001V83.2001C231.4 89.0001 232.3 94.2001 234.1 97.5001C238.9 106.3 246.7 107.2 250.4 107.2C254.1 107.2 261.9 106.3 266.7 97.5001C268.5 94.2001 269.4 89.0001 269.4 83.2001V34.1001H277.3V83.2001C277.3 89.8001 276.2 95.5001 274.3 99.6001C268.9 111.4 257.8 114.3 250.4 114.3C243 114.3 232 111.4 226.5 99.6001C224.6 95.4001 223.5 89.8001 223.5 83.2001V34.1001H231.4Z" fill="white"/>
<path d="M295.5 90.8999C295.9 100.8 302.2 107.2 311.9 107.2C320.2 107.2 327.8 100.8 327.8 91.5C327.8 79.3 315.5 76.3 310.2 74.7C303.1 72.6 289.7 69.5999 289.7 53.8999C289.7 41.5999 299.4 32.7 311.9 32.7C324.8 32.7 333.8 42.6 333.8 54.1H325.9C325.9 46.1 319.4 39.8 311.9 39.8C302.8 39.8 297.6 46.7 297.6 53.5C297.6 63.1 306 65.3 316.4 68.3C335.8 73.5 335.7 88.8 335.7 91.1C335.7 103.3 325.9 114.2 311.9 114.2C301.7 114.2 287.9 108.1 287.6 90.8H295.5V90.8999Z" fill="white"/>
<path d="M357.1 41.2001H339V34.1001H383V41.2001H365V112.9H357.1V41.2001Z" fill="white"/>
<path d="M149.5 73.4C149.5 96.3 130.9 114.8 108.1 114.8C85.2002 114.8 66.7002 96.2 66.7002 73.4C66.7002 50.5 85.3002 32 108.1 32C130.9 32 149.5 50.5 149.5 73.4Z" fill="#004691"/>
<mask id="mask0_140_147" style="mask-type:luminance" maskUnits="userSpaceOnUse" x="73" y="39" width="70" height="70">
<path d="M73.6001 73.7999C73.6001 92.7999 89.0001 108.2 108 108.2C127 108.2 142.4 92.7999 142.4 73.7999C142.4 54.7999 127 39.3999 108 39.3999C89.0001 39.3999 73.6001 54.7999 73.6001 73.7999Z" fill="white"/>
</mask>
<g mask="url(#mask0_140_147)">
<path d="M142.4 39.3999H73.6001V108.2H142.4V39.3999Z" fill="url(#paint0_radial_140_147)"/>
</g>
<path d="M380.6 107.9C380.6 109.8 379.1 111.4 377.2 111.4C375.3 111.4 373.8 109.8 373.8 107.9C373.8 106 375.3 104.4 377.2 104.4C379.1 104.4 380.6 106 380.6 107.9ZM374.3 107.9C374.3 109.6 375.5 110.9 377.2 110.9C378.8 110.9 380 109.6 380 107.9C380 106.2 378.8 104.9 377.2 104.9C375.6 104.9 374.3 106.2 374.3 107.9ZM378.6 106.6C378.5 106.5 378 106.3 377.5 106.3C376.4 106.3 375.9 107 375.9 107.9C375.9 108.8 376.4 109.5 377.5 109.5C377.9 109.5 378.4 109.4 378.6 109.2L378.7 109.6C378.3 109.9 377.8 109.9 377.3 109.9C376 109.9 375.2 109 375.2 107.9C375.2 106.6 376.2 105.8 377.4 105.8C378 105.8 378.5 106 378.6 106.1V106.6Z" fill="white"/>
<defs>
<radialGradient id="paint0_radial_140_147" cx="0" cy="0" r="1" gradientUnits="userSpaceOnUse" gradientTransform="translate(98.3775 57.8127) scale(66.277 66.277)">
<stop stop-color="white"/>
<stop offset="1.3e-07" stop-color="white"/>
<stop offset="0.1214" stop-color="#FEDFBA"/>
<stop offset="0.2492" stop-color="#FABF73"/>
<stop offset="0.3406" stop-color="#F8AA42"/>
<stop offset="0.3859" stop-color="#F6A22D"/>
<stop offset="0.4519" stop-color="#F3A032"/>
<stop offset="0.5171" stop-color="#EA9B3D"/>
<stop offset="0.582" stop-color="#DA934D"/>
<stop offset="0.6468" stop-color="#C4895F"/>
<stop offset="0.7115" stop-color="#A67B70"/>
<stop offset="0.7761" stop-color="#816B7E"/>
<stop offset="0.8402" stop-color="#51598A"/>
<stop offset="0.9033" stop-color="#004791"/>
<stop offset="0.9043" stop-color="#004691"/>
<stop offset="1" stop-color="#004691"/>
</radialGradient>
</defs>
</svg>
